<svg width="18" height="18" viewBox="0 0 18 18" fill="none" xmlns="http://www.w3.org/2000/svg">
<path d="M15.5455 4.29707C15.5455 4.29495 15.5455 4.29306 15.5449 4.29093C15.5444 4.2888 15.5442 4.28349 15.544 4.27983C15.5427 4.26343 15.5396 4.24724 15.5348 4.23163C15.5341 4.2295 15.5348 4.22726 15.5336 4.22513C15.5324 4.22301 15.5325 4.22336 15.5321 4.22242C15.5258 4.20526 15.5174 4.18908 15.5071 4.17434C15.5047 4.17103 15.5023 4.16808 15.4998 4.16489C15.4897 4.15186 15.4782 4.1402 15.4655 4.13016C15.4642 4.12909 15.4631 4.12779 15.4618 4.12685C15.4476 4.11685 15.4322 4.10891 15.416 4.10322C15.4123 4.10181 15.4085 4.10063 15.405 4.09944C15.388 4.09399 15.3704 4.09109 15.3526 4.09082H2.64748C2.62974 4.09109 2.61211 4.09399 2.59511 4.09944C2.59125 4.10063 2.5876 4.10181 2.58407 4.10322C2.56791 4.10891 2.55253 4.11685 2.53833 4.12685C2.537 4.12779 2.5359 4.12909 2.53457 4.13016C2.52188 4.1402 2.51038 4.15186 2.50033 4.16489C2.4979 4.16808 2.49536 4.17103 2.49304 4.17434C2.48269 4.18908 2.47426 4.20526 2.46796 4.22242C2.46796 4.22336 2.46685 4.22419 2.46652 4.22513C2.46619 4.22608 2.46597 4.2295 2.46531 4.23163C2.46045 4.24724 2.45737 4.26343 2.45614 4.27983C2.45614 4.28361 2.45514 4.28727 2.45514 4.29093C2.45514 4.29459 2.45459 4.29495 2.45459 4.29707V13.7019C2.45459 13.7046 2.45525 13.7072 2.45536 13.71C2.45569 13.7174 2.45639 13.7248 2.45746 13.7322C2.45835 13.7382 2.45912 13.744 2.46045 13.7501C2.46215 13.7573 2.46422 13.7643 2.46663 13.7713C2.46851 13.7768 2.47028 13.7824 2.4726 13.7877C2.47566 13.7947 2.47909 13.8014 2.48287 13.808C2.48552 13.8127 2.48817 13.8176 2.49116 13.8221C2.49544 13.8283 2.50005 13.8343 2.50497 13.84C2.50861 13.8443 2.51226 13.8485 2.51601 13.8525C2.51833 13.8548 2.5201 13.8575 2.52253 13.8597C2.52496 13.862 2.52651 13.8618 2.52828 13.8633C2.54336 13.8763 2.5602 13.8868 2.57821 13.8944C2.58208 13.896 2.58606 13.897 2.59003 13.8983C2.60746 13.9043 2.62562 13.9077 2.64394 13.9083C2.64527 13.9083 2.64649 13.909 2.64781 13.909H2.65035H15.3497H15.3523C15.3536 13.909 15.3548 13.9083 15.356 13.9083C15.3744 13.9077 15.3926 13.9044 15.4101 13.8983C15.4139 13.897 15.4178 13.896 15.4211 13.8944C15.4392 13.8868 15.456 13.8763 15.4711 13.8633C15.4729 13.8618 15.4751 13.8613 15.4769 13.8597C15.4787 13.8582 15.4811 13.8548 15.4834 13.8525C15.4874 13.8485 15.491 13.8444 15.4945 13.84C15.4994 13.8343 15.504 13.8283 15.5083 13.8221C15.5113 13.8176 15.5139 13.8128 15.5166 13.808C15.5203 13.8014 15.5238 13.7947 15.5268 13.7877C15.5291 13.7824 15.5309 13.7768 15.5328 13.7713C15.5352 13.7643 15.5373 13.7573 15.539 13.7501C15.5403 13.7442 15.5411 13.7383 15.542 13.7322C15.543 13.7248 15.5437 13.7174 15.5441 13.71C15.5441 13.7072 15.5448 13.7046 15.5448 13.7019L15.5455 4.29707ZM6.98917 8.56437L8.87366 10.2982C8.90875 10.3304 8.95349 10.3481 8.99977 10.3481C9.04604 10.3481 9.09079 10.3304 9.12588 10.2982L11.0105 8.56437L14.9337 13.4952H3.06607L6.98917 8.56437ZM2.84081 13.1402V4.74774L6.69641 8.29468L2.84081 13.1402ZM11.3032 8.29468L15.1588 4.74774V13.1402L11.3032 8.29468ZM14.8308 4.5038L10.9084 8.11276C10.9077 8.11335 10.9069 8.11371 10.9062 8.11442C10.9055 8.11512 10.9049 8.11607 10.9041 8.11678L8.99982 9.86875L7.09556 8.11678C7.09478 8.11607 7.09423 8.11512 7.09346 8.11442L7.09125 8.11276L3.16859 4.5038H14.8308Z" fill="#D2D2D2"/>
</svg>
