<svg width="30" height="30" viewBox="0 0 30 30" fill="none" xmlns="http://www.w3.org/2000/svg">
<path d="M15.2505 12.8049C13.7505 12.8049 12.5552 14.0237 12.5552 15.5002C12.5552 17.0002 13.7505 18.1956 15.2505 18.1956C16.7271 18.1956 17.9458 17.0002 17.9458 15.5002C17.9458 14.0237 16.7271 12.8049 15.2505 12.8049ZM15.2505 17.2581C14.2896 17.2581 13.4927 16.4846 13.4927 15.5002C13.4927 14.5393 14.2661 13.7659 15.2505 13.7659C16.2114 13.7659 16.9849 14.5393 16.9849 15.5002C16.9849 16.4846 16.2114 17.2581 15.2505 17.2581ZM18.6724 12.7112C18.6724 12.3596 18.3911 12.0784 18.0396 12.0784C17.688 12.0784 17.4067 12.3596 17.4067 12.7112C17.4067 13.0627 17.688 13.344 18.0396 13.344C18.3911 13.344 18.6724 13.0627 18.6724 12.7112ZM20.4536 13.344C20.4067 12.5002 20.2192 11.7502 19.6099 11.1409C19.0005 10.5315 18.2505 10.344 17.4067 10.2971C16.5396 10.2502 13.938 10.2502 13.0708 10.2971C12.2271 10.344 11.5005 10.5315 10.8677 11.1409C10.2583 11.7502 10.0708 12.5002 10.0239 13.344C9.97705 14.2112 9.97705 16.8127 10.0239 17.6799C10.0708 18.5237 10.2583 19.2502 10.8677 19.8831C11.5005 20.4924 12.2271 20.6799 13.0708 20.7268C13.938 20.7737 16.5396 20.7737 17.4067 20.7268C18.2505 20.6799 19.0005 20.4924 19.6099 19.8831C20.2192 19.2502 20.4067 18.5237 20.4536 17.6799C20.5005 16.8127 20.5005 14.2112 20.4536 13.344ZM19.3286 18.594C19.1646 19.0627 18.7896 19.4143 18.3442 19.6018C17.6411 19.8831 16.0005 19.8127 15.2505 19.8127C14.4771 19.8127 12.8364 19.8831 12.1567 19.6018C11.688 19.4143 11.3364 19.0627 11.1489 18.594C10.8677 17.9143 10.938 16.2737 10.938 15.5002C10.938 14.7502 10.8677 13.1096 11.1489 12.4065C11.3364 11.9612 11.688 11.6096 12.1567 11.4221C12.8364 11.1409 14.4771 11.2112 15.2505 11.2112C16.0005 11.2112 17.6411 11.1409 18.3442 11.4221C18.7896 11.5862 19.1411 11.9612 19.3286 12.4065C19.6099 13.1096 19.5396 14.7502 19.5396 15.5002C19.5396 16.2737 19.6099 17.9143 19.3286 18.594Z" fill="#A3A3A3"/>
</svg>
