<svg width="18" height="18" viewBox="0 0 18 18" fill="none" xmlns="http://www.w3.org/2000/svg">
<path d="M8.99986 2.57141C6.28417 2.57141 2.57129 4.624 2.57129 8.99998C2.57129 13.2646 6.14244 15.4286 8.99986 15.4286C13.9023 15.4286 15.4284 11.1336 15.4284 8.99998C15.4284 5.8515 13.019 2.57141 8.99986 2.57141ZM7.50914 3.1763C6.83844 3.7483 6.28164 4.69486 5.92225 5.86922C5.45655 5.59335 5.02883 5.25167 4.64919 4.85431C5.43378 4.03176 6.4259 3.45471 7.50914 3.1763ZM4.37331 5.16309C4.79851 5.606 5.28192 5.98311 5.80835 6.28176C5.61094 7.04863 5.49452 7.89903 5.47933 8.79245H2.99142C3.03698 7.45864 3.52292 6.18558 4.37331 5.16309ZM4.37331 12.8369C3.52039 11.8144 3.03698 10.5413 2.99142 9.20752H5.47933C5.49452 10.1035 5.61094 10.9513 5.80835 11.7182C5.28445 12.0194 4.80104 12.394 4.37331 12.8369ZM4.64919 13.1482C5.02883 12.7508 5.45655 12.4092 5.92225 12.1333C6.28164 13.3051 6.83844 14.2542 7.50914 14.8262C6.4259 14.5453 5.43378 13.9682 4.64919 13.1482ZM8.79232 14.9983C7.71415 14.8616 6.78529 13.6569 6.28417 11.9308C7.05863 11.5385 7.91409 11.3183 8.79232 11.2854V14.9983ZM8.79232 10.8729C7.87613 10.9032 6.98524 11.1285 6.17787 11.5233C6.0083 10.8147 5.90706 10.0326 5.89187 9.20752H8.79232V10.8729ZM8.79232 8.79245H5.89187C5.90706 7.96736 6.0083 7.1853 6.17787 6.47664C6.98777 6.87147 7.87866 7.09672 8.79232 7.12709V8.79245ZM8.79232 6.71455C7.91156 6.68418 7.05863 6.46146 6.28417 6.06916C6.78529 4.34053 7.71415 3.13834 8.79232 3.00167V6.71455ZM13.6264 5.16309C14.4768 6.18558 14.9627 7.45864 15.0083 8.79245H12.5229C12.5077 7.8965 12.3913 7.04863 12.1939 6.28176C12.7178 5.98058 13.2012 5.606 13.6264 5.16309ZM13.3505 4.85178C12.9709 5.24914 12.5432 5.59082 12.0775 5.86669C11.7181 4.69486 11.1613 3.7483 10.4906 3.17377C11.5738 3.45471 12.5659 4.03176 13.3505 4.85178ZM9.2074 3.00167C10.2856 3.13834 11.2144 4.34306 11.7156 6.06916C10.9411 6.46146 10.0882 6.68165 9.2074 6.71455V3.00167ZM9.2074 7.12709C10.1236 7.09672 11.0145 6.87147 11.8219 6.47664C11.9914 7.1853 12.0927 7.96736 12.1078 8.79245H9.2074V7.12709ZM9.2074 9.20752H12.1078C12.0927 10.0326 11.9914 10.8147 11.8219 11.5233C11.0145 11.126 10.1236 10.9007 9.2074 10.8729V9.20752ZM9.2074 14.9983V11.2854C10.0882 11.3158 10.9411 11.5385 11.7156 11.9308C11.2144 13.6594 10.2856 14.8616 9.2074 14.9983ZM10.4906 14.8237C11.1613 14.2517 11.7181 13.3051 12.0775 12.1307C12.5432 12.4066 12.9709 12.7483 13.3505 13.1457C12.5659 13.9682 11.5738 14.5453 10.4906 14.8237ZM13.6264 12.8369C13.2012 12.394 12.7178 12.0194 12.1939 11.7182C12.3913 10.9513 12.5077 10.1009 12.5229 9.20752H15.0083C14.9627 10.5413 14.4768 11.8144 13.6264 12.8369Z" fill="#D2D2D2"/>
</svg>
