<svg width="58" height="42" viewBox="0 0 58 42" fill="none" xmlns="http://www.w3.org/2000/svg">
<g clip-path="url(#clip0_57_991)">
<path fill-rule="evenodd" clip-rule="evenodd" d="M40.6789 30.6023L48.6339 21.9602C49.122 21.4299 49.122 20.5701 48.6339 20.0398L40.6789 11.3977C40.1908 10.8674 39.3993 10.8674 38.9112 11.3977C38.423 11.9281 38.423 12.7879 38.9112 13.3182L44.7322 19.642L10.25 19.642C9.55964 19.642 9 20.25 9 21C9 21.75 9.55964 22.358 10.25 22.358L44.7322 22.358L38.9112 28.6818C38.423 29.2121 38.423 30.0719 38.9112 30.6023C39.3993 31.1326 40.1908 31.1326 40.6789 30.6023Z" fill="#303030"/>
</g>
<rect x="57.75" y="0.25" width="41.5" height="57.5" transform="rotate(90 57.75 0.25)" stroke="url(#paint0_linear_57_991)" stroke-width="0.5"/>
<defs>
<linearGradient id="paint0_linear_57_991" x1="62" y1="-9.3531e-07" x2="88.6829" y2="34.6661" gradientUnits="userSpaceOnUse">
<stop/>
<stop offset="1" stop-opacity="0"/>
</linearGradient>
<clipPath id="clip0_57_991">
<rect x="58" width="42" height="58" transform="rotate(90 58 0)" fill="white"/>
</clipPath>
</defs>
</svg>
