<svg width="30" height="30" viewBox="0 0 30 30" fill="none" xmlns="http://www.w3.org/2000/svg">
<path d="M19.7505 10.2502H10.7271C10.3286 10.2502 10.0005 10.6018 10.0005 11.0237V20.0002C10.0005 20.4221 10.3286 20.7502 10.7271 20.7502H19.7505C20.1489 20.7502 20.5005 20.4221 20.5005 20.0002V11.0237C20.5005 10.6018 20.1489 10.2502 19.7505 10.2502ZM13.1646 19.2502H11.6177V14.2581H13.1646V19.2502ZM12.3911 13.5549C11.8755 13.5549 11.4771 13.1565 11.4771 12.6643C11.4771 12.1721 11.8755 11.7502 12.3911 11.7502C12.8833 11.7502 13.2817 12.1721 13.2817 12.6643C13.2817 13.1565 12.8833 13.5549 12.3911 13.5549ZM19.0005 19.2502H17.4302V16.8127C17.4302 16.2502 17.4302 15.5002 16.6333 15.5002C15.813 15.5002 15.6958 16.1331 15.6958 16.7893V19.2502H14.1489V14.2581H15.6255V14.9377H15.6489C15.8599 14.5393 16.3755 14.1174 17.1255 14.1174C18.6958 14.1174 19.0005 15.1721 19.0005 16.5081V19.2502Z" fill="#A3A3A3"/>
</svg>
