<svg width="18" height="18" viewBox="0 0 18 18" fill="none" xmlns="http://www.w3.org/2000/svg">
<path d="M15.1555 12.7497L12.9934 10.5875C12.8177 10.4118 12.5833 10.315 12.3335 10.315C12.0836 10.315 11.8493 10.4118 11.6736 10.5875L10.8147 11.4464C10.5194 11.5916 10.073 11.5599 9.5525 11.356C8.9762 11.1303 8.36318 10.7103 7.82636 10.1734C7.28952 9.63659 6.86955 9.02354 6.6438 8.44723C6.4399 7.92667 6.40823 7.48023 6.55341 7.185L7.41227 6.32611C7.58797 6.1504 7.68474 5.91603 7.68474 5.66619C7.68474 5.41634 7.58797 5.18197 7.41227 5.00626L5.25011 2.84401C5.07441 2.6683 4.84005 2.57153 4.59021 2.57153C4.34037 2.57153 4.10604 2.6683 3.93031 2.84401L3.0297 3.74467L3.01643 3.76589C2.43867 4.68813 2.42283 6.04263 2.97181 7.5799C3.51271 9.09454 4.56714 10.6852 5.94086 12.059C7.31457 13.4327 8.90521 14.4872 10.4198 15.0281C11.1679 15.2953 11.8725 15.4287 12.5052 15.4287C13.1728 15.4287 13.7603 15.2801 14.2337 14.9835L14.2549 14.9702L15.1556 14.0696C15.5194 13.7057 15.5194 13.1136 15.1555 12.7497ZM14.8434 13.7574L13.9786 14.6222C13.1732 15.1139 11.9635 15.1107 10.5683 14.6124C9.11397 14.093 7.58144 13.0753 6.253 11.7468C4.92456 10.4184 3.90691 8.88578 3.38753 7.43142C2.88923 6.03617 2.88601 4.82645 3.37768 4.02103L4.24248 3.15621C4.3348 3.06386 4.4583 3.01304 4.59021 3.01304C4.72212 3.01304 4.84562 3.06389 4.93797 3.15621L7.10013 5.31844C7.29186 5.51018 7.29186 5.82216 7.10013 6.0139L6.1947 6.91939L6.17947 6.94735C5.72907 7.7737 6.29041 9.26175 7.51422 10.4856C8.45431 11.4257 9.55016 11.9749 10.3824 11.9748C10.6335 11.9748 10.8608 11.9248 11.0524 11.8204L11.0803 11.8051L11.9857 10.8997C12.0781 10.8073 12.2016 10.7565 12.3335 10.7565C12.4654 10.7565 12.5889 10.8073 12.6812 10.8997L14.8434 13.0619C15.0351 13.2536 15.0351 13.5657 14.8434 13.7574Z" fill="#D2D2D2"/>
</svg>
